<?xml version="1.0" encoding="UTF-8" standalone="no"?><!DOCTYPE svg PUBLIC "-//W3C//DTD SVG 1.1//EN" "http://www.w3.org/Graphics/SVG/1.1/DTD/svg11.dtd"><svg width="100%" height="100%" viewBox="0 0 1367 2196" version="1.1" xmlns="http://www.w3.org/2000/svg" xmlns:xlink="http://www.w3.org/1999/xlink" xml:space="preserve" xmlns:serif="http://www.serif.com/" style="fill-rule:evenodd;clip-rule:evenodd;stroke-linejoin:round;stroke-miterlimit:2;"><path d="M881.983,1113.08c5.826,-19.504 11.728,-38.923 17.707,-58.256c116.928,-378.112 261.312,-723.557 428.97,-1035.87c3.506,-6.792 11.866,-9.461 18.658,-5.955c6.792,3.505 9.46,11.865 5.955,18.657c-126.187,255.073 -234.028,531.849 -328.148,828.105c-52.574,165.486 -100.065,337.198 -144.874,514.526c-63.188,250.061 -120.866,511.333 -167.87,784.617c-2.302,13.852 -14.005,24.189 -28.034,24.762c-14.03,0.573 -26.538,-8.774 -29.962,-22.391c-61.872,-257.305 -144.069,-506.675 -250.371,-746.719c-105.386,-237.976 -234.351,-466.724 -389.912,-685.159c-4.493,-6.184 -3.12,-14.851 3.063,-19.344c6.183,-4.493 14.851,-3.121 19.344,3.063c156.543,211.182 287.717,432.78 396.932,663.43c35.396,-108.765 65.756,-218.683 91.68,-332.006c28.312,-123.762 51.271,-251.525 68.559,-386.468c1.918,-13.416 12.806,-23.754 26.304,-24.973c13.497,-1.219 26.062,7.001 30.352,19.856c15.398,46.269 32.625,90.725 50.449,133.845c18.584,44.955 38.075,88.33 59.261,129.899c36.075,70.778 76.266,136.477 121.937,196.382Zm-427.908,307.716c88.436,192.625 161.782,391.438 221.667,595.825c30.963,-181.412 65.635,-357.741 106.065,-528.355c26.968,-113.81 56.298,-225.118 87.97,-333.815c-36.829,-40.197 -71.219,-83.434 -103.074,-129.755c-21.55,6.913 -39.556,14.846 -56.24,22.874c-14.119,6.795 -26.805,14.161 -39.318,21.984c-41.43,25.902 -78.627,59.958 -135.597,110.842c-24.534,81.336 -51.707,161.147 -81.473,240.4Zm294.5,-423.215c-11.826,-18.197 -23.277,-36.849 -34.348,-55.957c-24.251,-41.856 -46.73,-85.821 -67.002,-132.003c-4.919,-11.207 -9.684,-22.552 -14.318,-34.025c-17.738,96.482 -38.342,189.489 -62.179,280.152c-5.693,21.651 -11.566,43.166 -17.619,64.561c34.974,-37.885 62.285,-66.626 94.729,-87.501c14.441,-9.292 29.971,-16.848 47.217,-22.767c16.135,-5.538 33.69,-9.481 53.52,-12.46Z" style="fill:#fff;stroke:#fff;stroke-width:22.92px;"/></svg>